<svg width="60" height="60" viewBox="0 0 60 60" fill="none" xmlns="http://www.w3.org/2000/svg">
<rect width="60" height="60" rx="24" fill="#030000"/>
<path d="M35 39.25H25C21.35 39.25 19.25 37.15 19.25 33.5V26.5C19.25 22.85 21.35 20.75 25 20.75H35C38.65 20.75 40.75 22.85 40.75 26.5V33.5C40.75 37.15 38.65 39.25 35 39.25ZM25 22.25C22.14 22.25 20.75 23.64 20.75 26.5V33.5C20.75 36.36 22.14 37.75 25 37.75H35C37.86 37.75 39.25 36.36 39.25 33.5V26.5C39.25 23.64 37.86 22.25 35 22.25H25Z" fill="white"/>
<path d="M29.9988 30.87C29.1588 30.87 28.3088 30.61 27.6588 30.08L24.5288 27.58C24.2088 27.32 24.1488 26.85 24.4088 26.53C24.6688 26.21 25.1388 26.15 25.4588 26.41L28.5888 28.91C29.3488 29.52 30.6388 29.52 31.3988 28.91L34.5288 26.41C34.8488 26.15 35.3288 26.2 35.5788 26.53C35.8388 26.85 35.7888 27.33 35.4588 27.58L32.3288 30.08C31.6888 30.61 30.8388 30.87 29.9988 30.87Z" fill="white"/>
</svg>
