<svg width="91" height="44" viewBox="0 0 91 44" fill="none" xmlns="http://www.w3.org/2000/svg">
<path d="M14 38.5L11 21H14.5L17 35.5L19.5 21H23L19.5 38.5H14Z" fill="url(#paint0_linear_1_86)"/>
<path d="M28.5 4L31.5 21L28 21L27.4675 18L23.5325 18L23 21L19.5 21L23 4L28.5 4Z" fill="url(#paint1_linear_1_86)"/>
<path d="M27.0238 15.5L25.5 6.91429L24 15.5L27.0238 15.5Z" fill="#030000"/>
<path d="M43 22C43 17.4686 42.6008 13.0478 39.9935 9.34162C37.3862 5.63547 33.6981 2.82482 29.4332 1.29379C25.1683 -0.237246 20.5347 -0.413973 16.1656 0.787759C11.7964 1.98949 7.90498 4.51105 5.02299 8.00784C2.14099 11.5046 0.40908 15.8061 0.0639275 20.3243C-0.281225 24.8425 0.777224 29.3571 3.09463 33.2511C5.41203 37.145 8.87532 40.2284 13.0112 42.0799C17.1471 43.9313 21.552 43.3654 26 42.5C21.9968 43.2789 17.6324 41.7382 13.9101 40.0719C10.1878 38.4056 7.07083 35.6305 4.98517 32.126C2.8995 28.6214 1.9469 24.5582 2.25754 20.4918C2.56817 16.4255 4.1269 12.5542 6.72069 9.40706C9.31448 6.25995 12.8168 3.99054 16.749 2.90898C20.6812 1.82743 24.8515 1.98648 28.6899 3.36441C32.5283 4.74234 35.8476 7.27192 38.1941 10.6075C40.5407 13.943 43 17.9218 43 22Z" fill="url(#paint2_linear_1_86)"/>
<path d="M25.0625 35.2344V38H24.0254V30.0312H27.2949C27.6816 30.0312 28.0371 30.0977 28.3613 30.2305C28.6855 30.3594 28.9648 30.5391 29.1992 30.7695C29.4336 31 29.6152 31.2754 29.7441 31.5957C29.877 31.916 29.9434 32.2637 29.9434 32.6387C29.9434 33.0176 29.877 33.3652 29.7441 33.6816C29.6152 33.998 29.4336 34.2715 29.1992 34.502C28.9688 34.7324 28.6934 34.9121 28.373 35.041C28.0527 35.1699 27.7012 35.2344 27.3184 35.2344H25.0625ZM27.2715 34.3262C27.5059 34.3262 27.7227 34.2832 27.9219 34.1973C28.1211 34.1113 28.293 33.9941 28.4375 33.8457C28.5859 33.6934 28.7012 33.5156 28.7832 33.3125C28.8652 33.1055 28.9062 32.8809 28.9062 32.6387C28.9062 32.4004 28.8633 32.1777 28.7773 31.9707C28.6953 31.7637 28.5801 31.584 28.4316 31.4316C28.2871 31.2793 28.1133 31.1602 27.9102 31.0742C27.7109 30.9844 27.4941 30.9395 27.2598 30.9395H25.0625V34.3262H27.2715ZM34.7715 32.9258H34.1152C33.8105 32.9258 33.5312 32.9707 33.2773 33.0605C33.0273 33.1504 32.8125 33.2852 32.6328 33.4648C32.457 33.6445 32.3184 33.8672 32.2168 34.1328C32.1191 34.3945 32.0703 34.7012 32.0703 35.0527V38H31.0566V32.0234H31.8945L32 32.9492C32.1016 32.8164 32.2207 32.6934 32.3574 32.5801C32.498 32.4668 32.6543 32.3691 32.8262 32.2871C33.002 32.2051 33.1934 32.1406 33.4004 32.0938C33.6074 32.0469 33.8301 32.0234 34.0684 32.0234H34.7715V32.9258ZM35.7031 35.0117C35.7031 34.5742 35.7852 34.1641 35.9492 33.7812C36.1133 33.3945 36.3398 33.0586 36.6289 32.7734C36.9219 32.4883 37.2656 32.2637 37.6602 32.0996C38.0586 31.9355 38.4902 31.8535 38.9551 31.8535C39.4238 31.8535 39.8574 31.9355 40.2559 32.0996C40.6543 32.2637 40.998 32.4883 41.2871 32.7734C41.5801 33.0586 41.8086 33.3945 41.9727 33.7812C42.1406 34.1641 42.2246 34.5742 42.2246 35.0117C42.2246 35.4531 42.1406 35.8652 41.9727 36.248C41.8086 36.6309 41.5801 36.9648 41.2871 37.25C40.998 37.5352 40.6543 37.7598 40.2559 37.9238C39.8574 38.0879 39.4238 38.1699 38.9551 38.1699C38.4902 38.1699 38.0586 38.0879 37.6602 37.9238C37.2656 37.7598 36.9219 37.5352 36.6289 37.25C36.3398 36.9648 36.1133 36.6309 35.9492 36.248C35.7852 35.8652 35.7031 35.4531 35.7031 35.0117ZM36.7227 35.0117C36.7227 35.3398 36.7812 35.6426 36.8984 35.9199C37.0156 36.1934 37.1758 36.4316 37.3789 36.6348C37.582 36.8379 37.8184 36.9961 38.0879 37.1094C38.3613 37.2227 38.6543 37.2793 38.9668 37.2793C39.2793 37.2793 39.5723 37.2227 39.8457 37.1094C40.1191 36.9961 40.3555 36.8398 40.5547 36.6406C40.7578 36.4375 40.918 36.1973 41.0352 35.9199C41.1523 35.6426 41.2109 35.3398 41.2109 35.0117C41.2109 34.6875 41.1523 34.3867 41.0352 34.1094C40.918 33.832 40.7578 33.5938 40.5547 33.3945C40.3516 33.1914 40.1133 33.0332 39.8398 32.9199C39.5664 32.8027 39.2754 32.7441 38.9668 32.7441C38.6543 32.7441 38.3613 32.8008 38.0879 32.9141C37.8145 33.0273 37.5762 33.1855 37.373 33.3887C37.1738 33.5918 37.0156 33.832 36.8984 34.1094C36.7812 34.3828 36.7227 34.6836 36.7227 35.0117ZM43.4785 35.0117C43.4785 34.5742 43.5566 34.1641 43.7129 33.7812C43.8691 33.3945 44.0879 33.0586 44.3691 32.7734C44.6504 32.4883 44.9844 32.2637 45.3711 32.0996C45.7617 31.9355 46.1895 31.8535 46.6543 31.8535C46.9043 31.8535 47.1426 31.8809 47.3691 31.9355C47.5957 31.9863 47.8066 32.0586 48.002 32.1523C48.1973 32.2461 48.377 32.3574 48.541 32.4863C48.7051 32.6152 48.8516 32.7559 48.9805 32.9082V29.75H50V38H49.1152L49.0391 37.0332C48.9141 37.1934 48.7676 37.3438 48.5996 37.4844C48.4355 37.6211 48.252 37.7402 48.0488 37.8418C47.8496 37.9434 47.6348 38.0234 47.4043 38.082C47.1738 38.1406 46.9297 38.1699 46.6719 38.1699C46.207 38.1699 45.7793 38.0879 45.3887 37.9238C44.998 37.7598 44.6602 37.5352 44.375 37.25C44.0938 36.9648 43.873 36.6309 43.7129 36.248C43.5566 35.8652 43.4785 35.4531 43.4785 35.0117ZM44.4922 35.0117C44.4922 35.3398 44.5508 35.6426 44.668 35.9199C44.7891 36.1973 44.9512 36.4375 45.1543 36.6406C45.3613 36.8398 45.6016 36.9961 45.875 37.1094C46.1523 37.2227 46.4473 37.2793 46.7598 37.2793C47.0723 37.2793 47.3652 37.2227 47.6387 37.1094C47.916 36.9961 48.1562 36.8398 48.3594 36.6406C48.5664 36.4375 48.7285 36.1973 48.8457 35.9199C48.9668 35.6426 49.0273 35.3398 49.0273 35.0117C49.0273 34.6875 48.9668 34.3867 48.8457 34.1094C48.7285 33.832 48.5664 33.5938 48.3594 33.3945C48.1562 33.1914 47.916 33.0332 47.6387 32.9199C47.3652 32.8027 47.0723 32.7441 46.7598 32.7441C46.4434 32.7441 46.1465 32.8008 45.8691 32.9141C45.5957 33.0273 45.3555 33.1855 45.1484 33.3887C44.9453 33.5918 44.7852 33.832 44.668 34.1094C44.5508 34.3828 44.4922 34.6836 44.4922 35.0117ZM54.793 37.2793C55.3945 37.2793 55.8574 37.1074 56.1816 36.7637C56.5059 36.4199 56.668 35.8828 56.668 35.1523V32.0234H57.6875V35.1816C57.6875 35.6934 57.6191 36.1367 57.4824 36.5117C57.3457 36.8867 57.1504 37.1973 56.8965 37.4434C56.6465 37.6895 56.3418 37.873 55.9824 37.9941C55.627 38.1113 55.2305 38.1699 54.793 38.1699C54.3555 38.1699 53.959 38.1113 53.6035 37.9941C53.248 37.873 52.9434 37.6895 52.6895 37.4434C52.4395 37.1973 52.2461 36.8867 52.1094 36.5117C51.9727 36.1367 51.9043 35.6934 51.9043 35.1816V32.0234H52.9238V35.1523C52.9238 35.8789 53.082 36.416 53.3984 36.7637C53.7188 37.1074 54.1836 37.2793 54.793 37.2793ZM60.1602 35.0117C60.1602 35.3594 60.2207 35.6738 60.3418 35.9551C60.4668 36.2324 60.6328 36.4688 60.8398 36.6641C61.0508 36.8594 61.291 37.0098 61.5605 37.1152C61.8301 37.2207 62.1113 37.2734 62.4043 37.2734C62.6191 37.2734 62.8262 37.2461 63.0254 37.1914C63.2246 37.1367 63.4082 37.0586 63.5762 36.957C63.748 36.8555 63.9023 36.7324 64.0391 36.5879C64.1797 36.4434 64.2969 36.2793 64.3906 36.0957H65.4336C65.332 36.3965 65.1855 36.6738 64.9941 36.9277C64.8027 37.1816 64.5762 37.4004 64.3145 37.584C64.0527 37.7676 63.7598 37.9102 63.4355 38.0117C63.1113 38.1172 62.7656 38.1699 62.3984 38.1699C61.9336 38.1699 61.502 38.0879 61.1035 37.9238C60.7051 37.7559 60.3594 37.5293 60.0664 37.2441C59.7773 36.959 59.5508 36.625 59.3867 36.2422C59.2227 35.8594 59.1406 35.4492 59.1406 35.0117C59.1406 34.5742 59.2227 34.1641 59.3867 33.7812C59.5508 33.3945 59.7773 33.0586 60.0664 32.7734C60.3594 32.4883 60.7051 32.2637 61.1035 32.0996C61.502 31.9355 61.9336 31.8535 62.3984 31.8535C62.7656 31.8535 63.1094 31.9043 63.4297 32.0059C63.7539 32.1074 64.0469 32.25 64.3086 32.4336C64.5703 32.6133 64.7969 32.8301 64.9883 33.084C65.1797 33.3379 65.3281 33.6172 65.4336 33.9219L64.3906 33.9277C64.2969 33.7441 64.1797 33.5801 64.0391 33.4355C63.9023 33.2871 63.748 33.1621 63.5762 33.0605C63.4082 32.959 63.2246 32.8809 63.0254 32.8262C62.8262 32.7715 62.6191 32.7441 62.4043 32.7441C62.1113 32.7441 61.8281 32.7969 61.5547 32.9023C61.2852 33.0078 61.0469 33.1602 60.8398 33.3594C60.6328 33.5547 60.4668 33.793 60.3418 34.0742C60.2207 34.3516 60.1602 34.6641 60.1602 35.0117ZM67.6367 30.2773H68.3984V32.0234H70.4961V32.9082H68.3984V35.7324C68.3984 36.0332 68.4316 36.2812 68.498 36.4766C68.5684 36.668 68.6621 36.8203 68.7793 36.9336C68.8965 37.0469 69.0312 37.127 69.1836 37.1738C69.3359 37.2168 69.4941 37.2383 69.6582 37.2383H70.707L70.7012 38.0938H69.5703C69.2617 38.0938 68.9746 38.0566 68.709 37.9824C68.4434 37.9082 68.2109 37.7812 68.0117 37.6016C67.8164 37.4219 67.6621 37.1816 67.5488 36.8809C67.4395 36.5762 67.3848 36.1953 67.3848 35.7383V32.9082H66.3301V32.1055L67.3613 31.9297L67.6367 30.2773ZM72.3301 32.0234H73.3496V38H72.3301V32.0234ZM72.1602 30.2422C72.1602 30.0703 72.2227 29.9238 72.3477 29.8027C72.4727 29.6816 72.6387 29.6211 72.8457 29.6211C73.0527 29.6211 73.2188 29.6816 73.3438 29.8027C73.4727 29.9238 73.5371 30.0703 73.5371 30.2422C73.5371 30.418 73.4727 30.5664 73.3438 30.6875C73.2188 30.8086 73.0508 30.8691 72.8398 30.8691C72.7383 30.8691 72.6465 30.8535 72.5645 30.8223C72.4824 30.7871 72.4102 30.7422 72.3477 30.6875C72.2891 30.6289 72.2422 30.5625 72.207 30.4883C72.1758 30.4102 72.1602 30.3281 72.1602 30.2422ZM75.1836 35.0117C75.1836 34.5742 75.2656 34.1641 75.4297 33.7812C75.5938 33.3945 75.8203 33.0586 76.1094 32.7734C76.4023 32.4883 76.7461 32.2637 77.1406 32.0996C77.5391 31.9355 77.9707 31.8535 78.4355 31.8535C78.9043 31.8535 79.3379 31.9355 79.7363 32.0996C80.1348 32.2637 80.4785 32.4883 80.7676 32.7734C81.0605 33.0586 81.2891 33.3945 81.4531 33.7812C81.6211 34.1641 81.7051 34.5742 81.7051 35.0117C81.7051 35.4531 81.6211 35.8652 81.4531 36.248C81.2891 36.6309 81.0605 36.9648 80.7676 37.25C80.4785 37.5352 80.1348 37.7598 79.7363 37.9238C79.3379 38.0879 78.9043 38.1699 78.4355 38.1699C77.9707 38.1699 77.5391 38.0879 77.1406 37.9238C76.7461 37.7598 76.4023 37.5352 76.1094 37.25C75.8203 36.9648 75.5938 36.6309 75.4297 36.248C75.2656 35.8652 75.1836 35.4531 75.1836 35.0117ZM76.2031 35.0117C76.2031 35.3398 76.2617 35.6426 76.3789 35.9199C76.4961 36.1934 76.6562 36.4316 76.8594 36.6348C77.0625 36.8379 77.2988 36.9961 77.5684 37.1094C77.8418 37.2227 78.1348 37.2793 78.4473 37.2793C78.7598 37.2793 79.0527 37.2227 79.3262 37.1094C79.5996 36.9961 79.8359 36.8398 80.0352 36.6406C80.2383 36.4375 80.3984 36.1973 80.5156 35.9199C80.6328 35.6426 80.6914 35.3398 80.6914 35.0117C80.6914 34.6875 80.6328 34.3867 80.5156 34.1094C80.3984 33.832 80.2383 33.5938 80.0352 33.3945C79.832 33.1914 79.5938 33.0332 79.3203 32.9199C79.0469 32.8027 78.7559 32.7441 78.4473 32.7441C78.1348 32.7441 77.8418 32.8008 77.5684 32.9141C77.2949 33.0273 77.0566 33.1855 76.8535 33.3887C76.6543 33.5918 76.4961 33.832 76.3789 34.1094C76.2617 34.3828 76.2031 34.6836 76.2031 35.0117ZM89.2051 38H88.1855V34.7773C88.1855 34.418 88.1445 34.1113 88.0625 33.8574C87.9805 33.5996 87.8613 33.3887 87.7051 33.2246C87.5527 33.0605 87.3633 32.9395 87.1367 32.8613C86.9102 32.7832 86.6523 32.7441 86.3633 32.7441C86.0859 32.7441 85.8262 32.7949 85.584 32.8965C85.3457 32.998 85.1367 33.1406 84.957 33.3242C84.7773 33.5078 84.6367 33.7285 84.5352 33.9863C84.4336 34.2441 84.3828 34.5273 84.3828 34.8359V38H83.3691V32.0234H84.207L84.2949 32.8379C84.416 32.7012 84.5566 32.5723 84.7168 32.4512C84.877 32.3301 85.0508 32.2266 85.2383 32.1406C85.4297 32.0508 85.6309 31.9805 85.8418 31.9297C86.0566 31.8789 86.2754 31.8535 86.498 31.8535C87.416 31.8535 88.0957 32.0977 88.5371 32.5859C88.9824 33.0742 89.2051 33.7988 89.2051 34.7598V38Z" fill="#8F56DF"/>
<defs>
<linearGradient id="paint0_linear_1_86" x1="13.5" y1="38.5" x2="21" y2="20.5" gradientUnits="userSpaceOnUse">
<stop stop-color="#8F56DF"/>
<stop offset="1" stop-color="#ED396F"/>
</linearGradient>
<linearGradient id="paint1_linear_1_86" x1="21" y1="21" x2="28" y2="2" gradientUnits="userSpaceOnUse">
<stop stop-color="#E8396F"/>
<stop offset="1" stop-color="#8F56DF"/>
</linearGradient>
<linearGradient id="paint2_linear_1_86" x1="27.5" y1="1.5" x2="23.3372" y2="49.344" gradientUnits="userSpaceOnUse">
<stop stop-color="#E8396F"/>
<stop offset="1" stop-color="#8F56DF"/>
</linearGradient>
</defs>
</svg>
