<svg width="60" height="60" viewBox="0 0 60 60" fill="none" xmlns="http://www.w3.org/2000/svg">
<rect width="60" height="60" rx="24" fill="#030000"/>
<path d="M33 40.75H27C22.59 40.75 21.25 39.41 21.25 35V25C21.25 20.59 22.59 19.25 27 19.25H33C37.41 19.25 38.75 20.59 38.75 25V35C38.75 39.41 37.41 40.75 33 40.75ZM27 20.75C23.42 20.75 22.75 21.43 22.75 25V35C22.75 38.57 23.42 39.25 27 39.25H33C36.58 39.25 37.25 38.57 37.25 35V25C37.25 21.43 36.58 20.75 33 20.75H27Z" fill="white"/>
<path d="M32 24.25H28C27.59 24.25 27.25 23.91 27.25 23.5C27.25 23.09 27.59 22.75 28 22.75H32C32.41 22.75 32.75 23.09 32.75 23.5C32.75 23.91 32.41 24.25 32 24.25ZM30.0002 37.86C28.7302 37.86 27.7002 36.83 27.7002 35.56C27.7002 34.29 28.7302 33.26 30.0002 33.26C31.2702 33.26 32.3002 34.29 32.3002 35.56C32.3002 36.83 31.2702 37.86 30.0002 37.86ZM30.0002 34.75C29.5602 34.75 29.2002 35.11 29.2002 35.55C29.2002 35.99 29.5602 36.35 30.0002 36.35C30.4402 36.35 30.8002 35.99 30.8002 35.55C30.8002 35.11 30.4402 34.75 30.0002 34.75Z" fill="white"/>
</svg>
