<svg width="56" height="56" viewBox="0 0 56 56" fill="none" xmlns="http://www.w3.org/2000/svg">
<rect width="56" height="56" rx="28" fill="white"/>
<path d="M27.9991 37.2501C27.8091 37.2501 27.6191 37.1801 27.4691 37.0301L21.3991 30.9601C21.1091 30.6701 21.1091 30.1901 21.3991 29.9001C21.6891 29.6101 22.1691 29.6101 22.4591 29.9001L27.9991 35.4401L33.5391 29.9001C33.8291 29.6101 34.3091 29.6101 34.5991 29.9001C34.8891 30.1901 34.8891 30.6701 34.5991 30.9601L28.5291 37.0301C28.3791 37.1801 28.1891 37.2501 27.9991 37.2501Z" fill="#030000"/>
<path d="M28 37.08C27.59 37.08 27.25 36.74 27.25 36.33V19.5C27.25 19.09 27.59 18.75 28 18.75C28.41 18.75 28.75 19.09 28.75 19.5V36.33C28.75 36.74 28.41 37.08 28 37.08Z" fill="#030000"/>
</svg>
